<svg xmlns="http://www.w3.org/2000/svg" width="15" height="43" viewBox="312 40 15 43"><g data-name="menu/button/expand copy"><g data-name="Group"><path d="M312 81.997a3.595 3.595 0 0 0 4.982 0l8.416-7.658a5.218 5.218 0 0 0 1.601-3.852V52.513a5.218 5.218 0 0 0-1.602-3.852l-8.415-7.658a3.595 3.595 0 0 0-4.982 0v40.994Z" fill="#181f2c" fill-rule="evenodd" data-name="Path"/></g><g data-name="icon expand arrow"><path d="m320.299 61.5-4.08 4.185a.785.785 0 0 0 0 1.09c.294.3.77.3 1.063 0l4.61-4.73a.784.784 0 0 0 0-1.09l-4.61-4.73a.737.737 0 0 0-1.062 0 .785.785 0 0 0 0 1.09l4.079 4.185Z" fill="#fff" fill-rule="evenodd" data-name="Path"/></g></g></svg>