<svg xmlns="http://www.w3.org/2000/svg" width="15.75" height="14" viewBox="1254 22 15.75 14"><path d="M1263.516 34.125v-7.458h-3.282v7.458c0 .365.298.542.657.542h1.968c.36 0 .657-.177.657-.542Zm-4.676-8.792h2l-1.293-1.677a.934.934 0 0 0-.707-.323.993.993 0 0 0-.985 1c0 .552.441 1 .985 1Zm7.055-1c0-.552-.441-1-.985-1a.934.934 0 0 0-.707.323l-1.282 1.677h1.99a.993.993 0 0 0 .984-1ZM1269.75 27v3.333a.327.327 0 0 1-.328.334h-.985V35c0 .552-.44 1-.984 1h-11.156a.993.993 0 0 1-.985-1v-4.333h-.984a.327.327 0 0 1-.328-.334V27c0-.187.144-.333.328-.333h4.512c-1.272 0-2.297-1.042-2.297-2.334 0-1.291 1.025-2.333 2.297-2.333.687 0 1.323.292 1.722.802l1.313 1.719 1.312-1.719c.4-.51 1.036-.802 1.723-.802 1.272 0 2.297 1.042 2.297 2.333 0 1.292-1.025 2.334-2.297 2.334h4.512c.184 0 .328.146.328.333Z" fill="rgba(0,0,0,0.7019607843137254 )" fill-rule="evenodd" data-name="icon-whatsnew"/></svg>