<svg xmlns="http://www.w3.org/2000/svg" width="162.793" height="159.766" viewBox="647 264 162.793 159.766"><g data-name="illustration"><path d="M117.376 24.43s24.281.216 36.787 19.455c12.689 19.52 20.692 85.24-45.728 108.535-66.42 23.294-94.01-56.353-97.076-64.014-3.065-7.66-28.253-58.685 8.034-80.796 37.761-23.01 40.619 13.147 97.983 16.82Z" fill-rule="evenodd" fill="url(&quot;#a&quot;)" transform="translate(647 264)" data-name="Path 10185"/><path d="m673.52 348.604 1.017-.43-1.052-.317-.533-2.204-.386 2.24-1.018.372 1.026.376.469 2.237.476-2.274Z" fill="#029ce0" fill-rule="evenodd" data-name="Path 10186"/><path d="M688.54 307.159a.768.768 0 1 1-1.536 0 .768.768 0 0 1 1.535 0Z" fill="#fff" fill-rule="evenodd" data-name="Path 10187"/><g data-name="Group 10990"><path d="M797.773 354.606a.258.258 0 0 1-.182-.44l2.645-2.645a.258.258 0 1 1 .364.365l-2.645 2.645a.257.257 0 0 1-.182.075Z" fill="#ff6584" fill-rule="evenodd" data-name="Path 10188"/><path d="M800.418 354.606a.257.257 0 0 1-.182-.075l-2.645-2.645a.258.258 0 1 1 .364-.365l2.645 2.645a.258.258 0 0 1-.182.44Z" fill="#ff6584" fill-rule="evenodd" data-name="Path 10189"/></g><g data-name="Group 10991"><path d="M660.842 298.319a.258.258 0 0 1-.182-.44l2.645-2.645a.258.258 0 0 1 .364.364l-2.645 2.646a.257.257 0 0 1-.182.075Z" fill="#b3b2d8" fill-rule="evenodd" data-name="Path 10190"/><path d="M663.487 298.319a.257.257 0 0 1-.182-.075l-2.645-2.646a.258.258 0 1 1 .364-.364l2.645 2.645a.258.258 0 0 1-.182.44Z" fill="#b3b2d8" fill-rule="evenodd" data-name="Path 10191"/></g><g data-name="Group 10994"><g data-name="Group 10992"><path d="M708.434 293.976a.166.166 0 0 1 .102-.29l2.41-.126a.166.166 0 1 1 .018.332l-2.41.127a.166.166 0 0 1-.12-.043Z" fill="#8282bc" fill-rule="evenodd" data-name="Path 10192"/><path d="M709.702 295.118a.166.166 0 0 1-.055-.115l-.126-2.41a.166.166 0 0 1 .332-.018l.127 2.41a.166.166 0 0 1-.278.133Z" fill="#8282bc" fill-rule="evenodd" data-name="Path 10193"/></g><g data-name="Group 10993"><path d="M708.662 293.025a.166.166 0 0 1 .273-.14l1.845 1.555a.166.166 0 1 1-.214.254l-1.846-1.555a.166.166 0 0 1-.058-.114Z" fill="#8282bc" fill-rule="evenodd" data-name="Path 10194"/><path d="M708.807 294.726a.166.166 0 0 1 .038-.121l1.556-1.846a.166.166 0 1 1 .254.214l-1.555 1.846a.166.166 0 0 1-.293-.093Z" fill="#8282bc" fill-rule="evenodd" data-name="Path 10195"/></g></g><path d="m778.853 318.72 1.621-.684-1.676-.505-.848-3.509-.615 3.565-1.62.593 1.633.599.747 3.56.758-3.618Z" fill="#fff" fill-rule="evenodd" data-name="Path 10196"/><path d="M683.536 337.82a1.314 1.314 0 1 1-2.629 0 1.314 1.314 0 0 1 2.63 0Z" fill="#ff6584" fill-rule="evenodd" data-name="Path 10197"/><path d="m727.368 354.12-14.876 31.343h46.024l-15.043-31.342h-16.105Z" fill="#8282bc" fill-rule="evenodd" data-name="Path 10198"/><g data-name="Group 10998"><path d="m742.078 367.814-5.258 5.566a1.865 1.865 0 0 1-2.705.006l-5.302-5.56c-2.587-2.71-3.568-6.088-2.718-9.35l.569-1.704 2.058-6.162h13.398l2.065 6.193.569 1.705c.845 3.243-.12 6.601-2.676 9.306Z" fill="#8282bc" fill-rule="evenodd" data-name="Path 10199"/><path d="M743.3 354.152a5.704 5.704 0 0 1-1.194 5.707l-.028.029-5.302 5.612a1.804 1.804 0 0 1-2.617.006l-5.346-5.606-.028-.029a5.644 5.644 0 0 1-1.261-5.675l1.198-3.586h13.398l1.18 3.542Z" fill="#8282bc" fill-rule="evenodd" data-name="Path 10200"/><g data-name="Group 10995"><path d="m187.657 132.611 12.082 15.589a.899.899 0 0 0 1.61-.551v-18.998a5.39 5.39 0 0 0-2.094-4.265l-11.598-8.961v17.186Z" fill-rule="evenodd" fill="url(&quot;#b&quot;)" transform="translate(560.125 210.683)" data-name="Path 10201"/><path d="m129.971 132.611-12.084 15.591a.898.898 0 0 1-1.607-.55v-19c0-1.67.773-3.245 2.095-4.267l11.596-8.96v17.186Z" fill-rule="evenodd" fill="url(&quot;#c&quot;)" transform="translate(593.096 210.683)" data-name="Path 10202"/></g><path d="M164.43 52.627a69.304 69.304 0 0 0-2.075-5.572 74.84 74.84 0 0 0-1.96-4.26 75.685 75.685 0 0 0-1.292-2.481h-19.277c-.435.8-.865 1.627-1.292 2.48a74.787 74.787 0 0 0-1.96 4.26 69.5 69.5 0 0 0-1.427 3.664c-.224.628-.44 1.264-.648 1.909a54.743 54.743 0 0 0-2.772 16.775c-.004 3.86.212 7.718.645 11.554a89.269 89.269 0 0 0 1.093 7.07c.132.668.271 1.327.418 1.975a69.534 69.534 0 0 0 1.145 4.441c.197.672.403 1.33.616 1.973.213.642.433 1.27.66 1.881.342.917.7 1.798 1.072 2.642a38.15 38.15 0 0 0 1.567 3.16h21.043a38.04 38.04 0 0 0 1.567-3.16c.62-1.405 1.2-2.917 1.732-4.523a60.344 60.344 0 0 0 .907-2.992c.19-.686.372-1.386.546-2.1a77.361 77.361 0 0 0 .942-4.434c.35-1.909.643-3.89.876-5.933.434-3.836.649-7.694.645-11.554a54.74 54.74 0 0 0-2.771-16.775Z" fill-rule="evenodd" fill="url(&quot;#d&quot;)" transform="translate(585.96 245.378)" data-name="Path 10203"/><path d="M743.463 282.879a86.614 86.614 0 0 0-1.635-2.634 80.206 80.206 0 0 0-4.505-6.298c-.488-.614-.9-1.11-1.214-1.48a.897.897 0 0 0-1.369 0c-.314.37-.726.866-1.213 1.48a80.206 80.206 0 0 0-4.506 6.298 86.157 86.157 0 0 0-2.465 4.06 78.35 78.35 0 0 0-.77 1.387h19.277a82.535 82.535 0 0 0-1.6-2.813Z" fill="#ff6584" fill-rule="evenodd" data-name="Path 10204"/><path d="M154.607 154.376h-11.748c.394.846.802 1.65 1.226 2.41h21.043c.424-.759.832-1.562 1.226-2.41h-11.747Z" fill-rule="evenodd" fill="url(&quot;#e&quot;)" transform="translate(580.818 192.69)" data-name="Path 10205"/><path d="M164.374 158.552H143.33l-2.104 5.354h25.252l-2.104-5.354Z" fill-rule="evenodd" fill="url(&quot;#f&quot;)" transform="translate(581.573 190.761)" data-name="Path 10206"/><g data-name="Group 10996"><path d="M154.63 64.785c-6.473 0-11.72 5.247-11.72 11.72 0 6.473 5.247 11.72 11.72 11.72 6.472 0 11.72-5.247 11.72-11.72 0-6.473-5.248-11.72-11.72-11.72Z" fill-rule="evenodd" fill="url(&quot;#g&quot;)" transform="translate(580.795 234.074)" data-name="Path 10207"/><path d="M745.275 310.58c0-5.441-4.41-9.851-9.85-9.851-5.44 0-9.851 4.41-9.851 9.85 0 5.44 4.41 9.851 9.85 9.851 5.441 0 9.851-4.41 9.851-9.85" fill="#029ce0" fill-rule="evenodd" data-name="Path 10208"/></g><path d="M165.365 137.213v7.997c0 .605-.167 1.198-.484 1.714a39.879 39.879 0 0 1-2.577 3.755 2.275 2.275 0 0 1-3.72 0 34.39 34.39 0 0 1-2.474-3.779 3.28 3.28 0 0 1-.437-1.637v-8.258c0-.204.032-.407.095-.6l4.066-12.423.692-2.116.094-.287.716 2.403 3.942 12.657c.058.186.087.38.087.574Z" fill-rule="evenodd" fill="url(&quot;#h&quot;)" transform="translate(574.9 207.84)" data-name="Path 10209"/><path d="M155.89 75.571c-.393-.926-1.562-.891-2.701.325-1.14 1.215-1.544 2.348-.927 2.835.837.66 1.572.603 2.59-.723.63-.82 1.451-1.461 1.038-2.437Z" fill-rule="evenodd" fill="url(&quot;#i&quot;)" transform="translate(576.608 229.39)" data-name="Path 10210"/><path d="m740.198 313.396.37.098-.221-.31.321-.717-.58.532-.358-.114.201.321-.346.712.613-.522Z" fill="#c8d3d7" fill-rule="evenodd" data-name="Path 10211"/><path d="M740.315 315.452a.188.188 0 1 1-.376 0 .188.188 0 0 1 .376 0Z" fill="#72a7d3" fill-rule="evenodd" data-name="Path 10212"/><path d="M735.187 308.435a.21.21 0 1 1-.419 0 .21.21 0 0 1 .419 0Z" fill="#c8d3d7" fill-rule="evenodd" data-name="Path 10213"/><g data-name="Group 10997"><path d="M733.03 316.69a.128.128 0 0 1-.09-.219l1.314-1.313a.128.128 0 1 1 .18.181l-1.313 1.313a.128.128 0 0 1-.09.038Z" fill="#fff" fill-rule="evenodd" data-name="Path 10214"/><path d="M734.344 316.69a.127.127 0 0 1-.09-.038l-1.314-1.313a.128.128 0 1 1 .181-.181l1.314 1.313a.128.128 0 0 1-.09.219Z" fill="#fff" fill-rule="evenodd" data-name="Path 10215"/></g><path d="m740.536 308.404.712.189-.425-.598.618-1.379-1.117 1.023-.689-.218.387.616-.665 1.37 1.179-1.003Z" fill="#c8d3d7" fill-rule="evenodd" data-name="Path 10216"/><path d="m729.603 312.45.39.103-.233-.327.34-.758-.614.562-.378-.12.213.339-.366.753.648-.552Z" fill="#c8d3d7" fill-rule="evenodd" data-name="Path 10217"/></g><g data-name="Group 10999" transform="translate(647.207 264)" clip-path="url(&quot;#j&quot;)"><path d="m179.458 249.606-95.999 3.01c.114-.78 2.76-22.75 3.045-23.482.234-.69.448-1.384.72-2.068.355-.848.82-1.644 1.384-2.37a8.147 8.147 0 0 1 3.813-2.812 7.229 7.229 0 0 1 1.85-.398c.178-.682.395-1.353.65-2.01a11.562 11.562 0 0 1 6.703-6.604c2.296-.807 4.896-.72 7.26-.411a16.55 16.55 0 0 1 2.715.55 7.85 7.85 0 0 1 3.036-3.99c2.42-1.593 5.669-1.515 8.284-.66.852.28 1.668.663 2.428 1.14a24.756 24.756 0 0 1 2.926-3.648 18.323 18.323 0 0 1 5.356-3.767c3.921-1.82 8.576-1.276 12.296.895a13.225 13.225 0 0 1 4.652 4.819c.287-.085.578-.162.877-.222 3.38-.69 6.894.031 9.731 1.996a17.803 17.803 0 0 1 5.73 6.777 12.046 12.046 0 0 1 7.5 2.037c3.889 2.605 5.829 7.512 5.094 12.562-.02.138-.025 18.521-.05 18.656Z" fill-rule="evenodd" fill="url(&quot;#k&quot;)" transform="translate(-38.852 -92.85)" data-name="Path 10218"/></g><g data-name="Group 11000" transform="translate(647 264.328)" clip-path="url(&quot;#l&quot;)"><path d="m70.531 252.478 89.452-1.433c-.108-.734-1.181-19.36-1.451-20.049-.222-.65-.425-1.302-.683-1.946a9.752 9.752 0 0 0-1.31-2.23 7.713 7.713 0 0 0-3.612-2.648 6.884 6.884 0 0 0-1.752-.374 17.205 17.205 0 0 0-.616-1.893 10.919 10.919 0 0 0-6.348-6.215c-2.174-.759-4.637-.677-6.877-.387-.87.1-1.73.274-2.57.518a7.393 7.393 0 0 0-2.876-3.756c-2.291-1.498-5.369-1.426-7.846-.62-.807.263-1.579.623-2.3 1.073a23.326 23.326 0 0 0-2.771-3.434 17.354 17.354 0 0 0-5.072-3.546c-3.715-1.712-8.123-1.2-11.646.843a12.483 12.483 0 0 0-4.406 4.535 9.395 9.395 0 0 0-.83-.208c-3.2-.65-6.525.028-9.217 1.878a16.784 16.784 0 0 0-5.426 6.379c-2.514-.16-5.01.514-7.105 1.917-3.682 2.452-5.52 7.07-4.824 11.823.02.13.062 19.646.086 19.773Z" fill-rule="evenodd" fill="url(&quot;#m&quot;)" transform="translate(-32.552 -94.802)" data-name="Path 10220"/></g></g><defs><linearGradient x1=".027" y1=".386" x2="1.012" y2=".708" id="a"><stop stop-color="#f5f9fd" offset="0"/><stop stop-color="#e7eef8" offset=".155"/><stop stop-color="#d2ddf0" offset=".444"/><stop stop-color="#c5d3ec" offset=".728"/><stop stop-color="#c1d0ea" offset="1"/></linearGradient><linearGradient x1="1.368" y1=".717" x2="-.409" y2=".293" id="b"><stop stop-color="#fff" offset="0"/><stop stop-color="#b7c7de" offset=".837"/></linearGradient><linearGradient x1="0" y1=".5" x2="1" y2=".5" id="c"><stop stop-color="#fff" offset="0"/><stop stop-color="#b7c7de" offset="1"/></linearGradient><linearGradient x1="0" y1=".5" x2="1" y2=".5" id="d"><stop stop-color="#fff" offset="0"/><stop stop-color="#b7c7de" offset="1"/></linearGradient><linearGradient x1="1" y1=".5" x2="0" y2=".5" id="e"><stop stop-color="#fff" offset="0"/><stop stop-color="#b7c7de" offset="1"/></linearGradient><linearGradient x1="1" y1=".5" x2="0" y2=".5" id="f"><stop stop-color="#fff" offset="0"/><stop stop-color="#b7c7de" offset="1"/></linearGradient><linearGradient x1="1" y1=".5" x2="0" y2=".5" id="g"><stop stop-color="#fff" offset="0"/><stop stop-color="#c1d0ea" offset="1"/></linearGradient><linearGradient x1="0" y1=".5" x2="1" y2=".5" id="h"><stop stop-color="#b7c7de" offset="0"/><stop stop-color="#fff" offset="1"/></linearGradient><linearGradient x1=".315" y1=".809" x2=".812" y2="-.019" id="i"><stop stop-color="#fff" offset="0"/><stop stop-color="#b7c7de" offset="1"/></linearGradient><linearGradient x1=".673" y1="1.292" x2=".304" y2=".102" id="k"><stop stop-color="#f5f9fd" offset="0"/><stop stop-color="#f0f5fd" offset=".092"/><stop stop-color="#e9f0fc" offset=".332"/><stop stop-color="#e7effc" offset="1"/></linearGradient><linearGradient x1=".915" y1=".306" x2="-.006" y2="1.063" id="m"><stop stop-color="#fff" offset="0"/><stop stop-color="#f8fbfe" offset=".087"/><stop stop-color="#f5f9fd" offset=".23"/><stop stop-color="#f4f8fd" offset=".249"/><stop stop-color="#eaf1fc" offset=".584"/><stop stop-color="#e7effc" offset="1"/></linearGradient><clipPath id="j"><path d="M117.76 24.43s24.281.216 36.787 19.455c12.689 19.52 20.692 85.24-45.728 108.535-66.42 23.294-94.01-56.353-97.076-64.014-3.065-7.66-28.252-58.685 8.034-80.796 37.761-23.01 40.62 13.147 97.983 16.82Z" data-name="Path 10219" transform="translate(-.384)"/></clipPath><clipPath id="l"><path d="M117.376 25.04s24.281.216 36.787 19.454c12.689 19.521 20.692 85.241-45.728 108.535-66.42 23.294-94.01-56.352-97.076-64.013-3.065-7.66-28.253-58.685 8.034-80.796 37.761-23.01 40.619 13.147 97.983 16.82Z" data-name="Path 10221" transform="translate(0 -.61)"/></clipPath></defs></svg>