<svg xmlns="http://www.w3.org/2000/svg" width="14" height="14" viewBox="1287 22 14 14"><path d="M1294 22c-3.864 0-7 3.136-7 7s3.136 7 7 7 7-3.136 7-7-3.136-7-7-7Zm.7 11.9h-1.4v-1.4h1.4v1.4Zm1.449-5.425-.63.644c-.504.511-.819.931-.819 1.981h-1.4v-.35c0-.77.315-1.47.819-1.981l.868-.882c.259-.252.413-.602.413-.987 0-.77-.63-1.4-1.4-1.4-.77 0-1.4.63-1.4 1.4h-1.4a2.8 2.8 0 1 1 5.6 0c0 .616-.252 1.176-.651 1.575Z" fill="rgba(0,0,0,0.7019607843137254 )" fill-rule="evenodd" data-name="Path 1335"/></svg>